<svg width="61" height="45" viewBox="0 0 61 45" fill="none" xmlns="http://www.w3.org/2000/svg">
<path d="M14.0555 33.129C16.1726 33.129 17.8888 31.5592 17.8888 29.6226C17.8888 27.6861 16.1726 26.1162 14.0555 26.1162C11.9384 26.1162 10.2222 27.6861 10.2222 29.6226C10.2222 31.5592 11.9384 33.129 14.0555 33.129Z" fill="white"/>
<path d="M48.2917 0H12.7083C9.33911 0.00396964 6.10904 1.3222 3.72664 3.66555C1.34424 6.00889 0.0040358 9.18601 0 12.5L0 32.5C0.0040358 35.814 1.34424 38.9911 3.72664 41.3345C6.10904 43.6778 9.33911 44.996 12.7083 45H48.2917C51.6609 44.996 54.891 43.6778 57.2734 41.3345C59.6558 38.9911 60.996 35.814 61 32.5V12.5C60.996 9.18601 59.6558 6.00889 57.2734 3.66555C54.891 1.3222 51.6609 0.00396964 48.2917 0ZM12.7083 5H48.2917C50.3139 5 52.2534 5.79018 53.6834 7.1967C55.1133 8.60322 55.9167 10.5109 55.9167 12.5H5.08333C5.08333 10.5109 5.88668 8.60322 7.31664 7.1967C8.74661 5.79018 10.6861 5 12.7083 5ZM48.2917 40H12.7083C10.6861 40 8.74661 39.2098 7.31664 37.8033C5.88668 36.3968 5.08333 34.4891 5.08333 32.5V17.5H55.9167V32.5C55.9167 34.4891 55.1133 36.3968 53.6834 37.8033C52.2534 39.2098 50.3139 40 48.2917 40Z" fill="white"/>
</svg>
