<svg width="63" height="63" viewBox="0 0 63 63" fill="none" xmlns="http://www.w3.org/2000/svg">
<g clip-path="url(#clip0_203_32)">
<path d="M23.625 63H2.625C1.92881 63 1.26113 62.7234 0.768845 62.2312C0.276562 61.7389 0 61.0712 0 60.375C0 59.6788 0.276562 59.0111 0.768845 58.5188C1.26113 58.0266 1.92881 57.75 2.625 57.75H23.625C24.3212 57.75 24.9889 58.0266 25.4812 58.5188C25.9734 59.0111 26.25 59.6788 26.25 60.375C26.25 61.0712 25.9734 61.7389 25.4812 62.2312C24.9889 62.7234 24.3212 63 23.625 63Z" fill="white"/>
<path d="M18.375 52.5H2.625C1.92881 52.5 1.26113 52.2234 0.768845 51.7312C0.276562 51.2389 0 50.5712 0 49.875C0 49.1788 0.276562 48.5111 0.768845 48.0188C1.26113 47.5266 1.92881 47.25 2.625 47.25H18.375C19.0712 47.25 19.7389 47.5266 20.2312 48.0188C20.7234 48.5111 21 49.1788 21 49.875C21 50.5712 20.7234 51.2389 20.2312 51.7312C19.7389 52.2234 19.0712 52.5 18.375 52.5Z" fill="white"/>
<path d="M13.125 42H2.625C1.92881 42 1.26113 41.7234 0.768845 41.2312C0.276562 40.7389 0 40.0712 0 39.375C0 38.6788 0.276562 38.0111 0.768845 37.5188C1.26113 37.0266 1.92881 36.75 2.625 36.75H13.125C13.8212 36.75 14.4889 37.0266 14.9812 37.5188C15.4734 38.0111 15.75 38.6788 15.75 39.375C15.75 40.0712 15.4734 40.7389 14.9812 41.2312C14.4889 41.7234 13.8212 42 13.125 42Z" fill="white"/>
<path d="M34.125 62.8819C33.4288 62.9129 32.7488 62.666 32.2346 62.1956C31.7204 61.7253 31.4141 61.0699 31.3831 60.3737C31.3522 59.6775 31.599 58.9975 32.0694 58.4833C32.5398 57.9692 33.1951 57.6629 33.8913 57.6319C38.859 57.1774 43.5944 55.3167 47.5427 52.2679C51.4911 49.2191 54.489 45.1084 56.1852 40.4172C57.8815 35.726 58.206 30.6486 57.1206 25.7796C56.0352 20.9107 53.5849 16.4518 50.0568 12.9253C46.5286 9.39871 42.0686 6.95049 37.1991 5.86734C32.3297 4.7842 27.2524 5.11099 22.562 6.80943C17.8716 8.50788 13.7623 11.5077 10.7153 15.4574C7.66829 19.4072 5.80983 24.1434 5.35758 29.1113C5.29492 29.8047 4.95938 30.4448 4.42476 30.8908C3.89014 31.3368 3.20024 31.5522 2.50683 31.4895C1.81342 31.4269 1.1733 31.0913 0.727295 30.5567C0.281286 30.0221 0.0659221 29.3322 0.128579 28.6388C0.860663 20.5625 4.67929 13.0796 10.7896 7.74788C16.8998 2.41616 24.831 -0.353654 32.932 0.0150206C41.0331 0.383696 48.6798 3.86245 54.2806 9.72714C59.8813 15.5918 63.0045 23.3906 63 31.5C63.0402 39.3707 60.1162 46.9681 54.8097 52.7809C49.5031 58.5938 42.2029 62.1961 34.3612 62.8714C34.2825 62.8793 34.2011 62.8819 34.125 62.8819Z" fill="white"/>
<path d="M31.5 15.75C30.8038 15.75 30.1361 16.0266 29.6438 16.5188C29.1516 17.0111 28.875 17.6788 28.875 18.375V31.5C28.8751 32.1961 29.1518 32.8637 29.6441 33.3559L37.5191 41.2309C38.0142 41.709 38.6773 41.9736 39.3656 41.9676C40.0538 41.9617 40.7122 41.6856 41.1989 41.1989C41.6856 40.7122 41.9617 40.0538 41.9676 39.3656C41.9736 38.6773 41.709 38.0142 41.2309 37.5191L34.125 30.4133V18.375C34.125 17.6788 33.8484 17.0111 33.3562 16.5188C32.8639 16.0266 32.1962 15.75 31.5 15.75Z" fill="white"/>
</g>
<defs>
<clipPath id="clip0_203_32">
<rect width="63" height="63" fill="white"/>
</clipPath>
</defs>
</svg>
